<mxfile host="app.diagrams.net" agent="Mozilla/5.0 (X11; Linux x86_64) AppleWebKit/537.36 (KHTML, like Gecko) Chrome/130.0.0.0 Safari/537.36" version="26.0.10">
  <diagram name="Page-1" id="aWZ1K5_7phdCTR4p_8O1">
    <mxGraphModel dx="1955" dy="913" grid="1" gridSize="10" guides="1" tooltips="1" connect="1" arrows="1" fold="1" page="1" pageScale="1" pageWidth="1169" pageHeight="1654" math="0" shadow="0">
      <root>
        <mxCell id="0" />
        <mxCell id="1" parent="0" />
        <mxCell id="SGDhgaYnDALQm6ACCcvY-5" value="Phishing Simulation System" style="swimlane;whiteSpace=wrap;html=1;" vertex="1" parent="1">
          <mxGeometry x="250" y="160" width="770" height="860" as="geometry" />
        </mxCell>
        <mxCell id="SGDhgaYnDALQm6ACCcvY-6" value="Login/Register" style="ellipse;whiteSpace=wrap;html=1;" vertex="1" parent="SGDhgaYnDALQm6ACCcvY-5">
          <mxGeometry x="180" y="160" width="140" height="70" as="geometry" />
        </mxCell>
        <mxCell id="SGDhgaYnDALQm6ACCcvY-11" value="View Report" style="ellipse;whiteSpace=wrap;html=1;" vertex="1" parent="SGDhgaYnDALQm6ACCcvY-5">
          <mxGeometry x="520" y="340" width="140" height="70" as="geometry" />
        </mxCell>
        <mxCell id="SGDhgaYnDALQm6ACCcvY-10" value="Analyze Password Strength" style="ellipse;whiteSpace=wrap;html=1;" vertex="1" parent="SGDhgaYnDALQm6ACCcvY-5">
          <mxGeometry x="510" y="430" width="160" height="100" as="geometry" />
        </mxCell>
        <mxCell id="SGDhgaYnDALQm6ACCcvY-9" value="Manage Users" style="ellipse;whiteSpace=wrap;html=1;" vertex="1" parent="SGDhgaYnDALQm6ACCcvY-5">
          <mxGeometry x="520" y="570" width="140" height="70" as="geometry" />
        </mxCell>
        <mxCell id="SGDhgaYnDALQm6ACCcvY-8" value="View Feedback" style="ellipse;whiteSpace=wrap;html=1;" vertex="1" parent="SGDhgaYnDALQm6ACCcvY-5">
          <mxGeometry x="180" y="390" width="140" height="70" as="geometry" />
        </mxCell>
        <mxCell id="SGDhgaYnDALQm6ACCcvY-7" value="Test Users" style="ellipse;whiteSpace=wrap;html=1;" vertex="1" parent="SGDhgaYnDALQm6ACCcvY-5">
          <mxGeometry x="520" y="680" width="140" height="70" as="geometry" />
        </mxCell>
        <mxCell id="SGDhgaYnDALQm6ACCcvY-12" value="Attacker" style="ellipse;whiteSpace=wrap;html=1;" vertex="1" parent="SGDhgaYnDALQm6ACCcvY-5">
          <mxGeometry x="390" y="80" width="90" height="50" as="geometry" />
        </mxCell>
        <mxCell id="SGDhgaYnDALQm6ACCcvY-18" value="Victim" style="ellipse;whiteSpace=wrap;html=1;" vertex="1" parent="SGDhgaYnDALQm6ACCcvY-5">
          <mxGeometry x="420" y="160" width="90" height="50" as="geometry" />
        </mxCell>
        <mxCell id="SGDhgaYnDALQm6ACCcvY-17" value="Defender" style="ellipse;whiteSpace=wrap;html=1;" vertex="1" parent="SGDhgaYnDALQm6ACCcvY-5">
          <mxGeometry x="400" y="240" width="90" height="50" as="geometry" />
        </mxCell>
        <mxCell id="SGDhgaYnDALQm6ACCcvY-24" value="require" style="html=1;verticalAlign=bottom;endArrow=open;dashed=1;endSize=8;curved=0;rounded=0;exitX=0;exitY=0.5;exitDx=0;exitDy=0;entryX=1;entryY=0.5;entryDx=0;entryDy=0;" edge="1" parent="SGDhgaYnDALQm6ACCcvY-5" source="SGDhgaYnDALQm6ACCcvY-12" target="SGDhgaYnDALQm6ACCcvY-6">
          <mxGeometry relative="1" as="geometry">
            <mxPoint x="375" y="150" as="sourcePoint" />
            <mxPoint x="295" y="150" as="targetPoint" />
          </mxGeometry>
        </mxCell>
        <mxCell id="SGDhgaYnDALQm6ACCcvY-23" value="require" style="html=1;verticalAlign=bottom;endArrow=open;dashed=1;endSize=8;curved=0;rounded=0;exitX=0;exitY=0.5;exitDx=0;exitDy=0;entryX=1;entryY=0.5;entryDx=0;entryDy=0;" edge="1" parent="SGDhgaYnDALQm6ACCcvY-5" source="SGDhgaYnDALQm6ACCcvY-18" target="SGDhgaYnDALQm6ACCcvY-6">
          <mxGeometry relative="1" as="geometry">
            <mxPoint x="400" y="194.58000000000004" as="sourcePoint" />
            <mxPoint x="320" y="194.58000000000004" as="targetPoint" />
          </mxGeometry>
        </mxCell>
        <mxCell id="SGDhgaYnDALQm6ACCcvY-22" value="require" style="html=1;verticalAlign=bottom;endArrow=open;dashed=1;endSize=8;curved=0;rounded=0;exitX=0;exitY=0.5;exitDx=0;exitDy=0;" edge="1" parent="SGDhgaYnDALQm6ACCcvY-5" source="SGDhgaYnDALQm6ACCcvY-17">
          <mxGeometry relative="1" as="geometry">
            <mxPoint x="390" y="250" as="sourcePoint" />
            <mxPoint x="330" y="200" as="targetPoint" />
          </mxGeometry>
        </mxCell>
        <mxCell id="SGDhgaYnDALQm6ACCcvY-19" style="edgeStyle=orthogonalEdgeStyle;rounded=0;orthogonalLoop=1;jettySize=auto;html=1;exitX=1;exitY=0.3333333333333333;exitDx=0;exitDy=0;exitPerimeter=0;entryX=0;entryY=0.5;entryDx=0;entryDy=0;" edge="1" parent="1" source="SGDhgaYnDALQm6ACCcvY-15" target="SGDhgaYnDALQm6ACCcvY-6">
          <mxGeometry relative="1" as="geometry" />
        </mxCell>
        <mxCell id="SGDhgaYnDALQm6ACCcvY-21" style="edgeStyle=orthogonalEdgeStyle;rounded=0;orthogonalLoop=1;jettySize=auto;html=1;exitX=1;exitY=0.3333333333333333;exitDx=0;exitDy=0;exitPerimeter=0;" edge="1" parent="1" source="SGDhgaYnDALQm6ACCcvY-15" target="SGDhgaYnDALQm6ACCcvY-8">
          <mxGeometry relative="1" as="geometry" />
        </mxCell>
        <mxCell id="SGDhgaYnDALQm6ACCcvY-15" value="Actor" style="shape=umlActor;verticalLabelPosition=bottom;verticalAlign=top;html=1;" vertex="1" parent="1">
          <mxGeometry x="100" y="620" width="30" height="60" as="geometry" />
        </mxCell>
        <mxCell id="SGDhgaYnDALQm6ACCcvY-20" style="edgeStyle=orthogonalEdgeStyle;rounded=0;orthogonalLoop=1;jettySize=auto;html=1;exitX=0;exitY=0.3333333333333333;exitDx=0;exitDy=0;exitPerimeter=0;entryX=0.5;entryY=1;entryDx=0;entryDy=0;" edge="1" parent="1" source="SGDhgaYnDALQm6ACCcvY-16" target="SGDhgaYnDALQm6ACCcvY-6">
          <mxGeometry relative="1" as="geometry" />
        </mxCell>
        <mxCell id="SGDhgaYnDALQm6ACCcvY-25" style="edgeStyle=orthogonalEdgeStyle;rounded=0;orthogonalLoop=1;jettySize=auto;html=1;exitX=0;exitY=0.3333333333333333;exitDx=0;exitDy=0;exitPerimeter=0;entryX=1;entryY=0.5;entryDx=0;entryDy=0;" edge="1" parent="1" source="SGDhgaYnDALQm6ACCcvY-16" target="SGDhgaYnDALQm6ACCcvY-11">
          <mxGeometry relative="1" as="geometry" />
        </mxCell>
        <mxCell id="SGDhgaYnDALQm6ACCcvY-26" style="edgeStyle=orthogonalEdgeStyle;rounded=0;orthogonalLoop=1;jettySize=auto;html=1;exitX=0;exitY=0.3333333333333333;exitDx=0;exitDy=0;exitPerimeter=0;entryX=1;entryY=0.5;entryDx=0;entryDy=0;" edge="1" parent="1" source="SGDhgaYnDALQm6ACCcvY-16" target="SGDhgaYnDALQm6ACCcvY-10">
          <mxGeometry relative="1" as="geometry" />
        </mxCell>
        <mxCell id="SGDhgaYnDALQm6ACCcvY-29" style="edgeStyle=orthogonalEdgeStyle;rounded=0;orthogonalLoop=1;jettySize=auto;html=1;exitX=0;exitY=0.3333333333333333;exitDx=0;exitDy=0;exitPerimeter=0;entryX=1;entryY=0.5;entryDx=0;entryDy=0;" edge="1" parent="1" source="SGDhgaYnDALQm6ACCcvY-16" target="SGDhgaYnDALQm6ACCcvY-9">
          <mxGeometry relative="1" as="geometry" />
        </mxCell>
        <mxCell id="SGDhgaYnDALQm6ACCcvY-30" style="edgeStyle=orthogonalEdgeStyle;rounded=0;orthogonalLoop=1;jettySize=auto;html=1;exitX=0;exitY=0.3333333333333333;exitDx=0;exitDy=0;exitPerimeter=0;entryX=1;entryY=0.5;entryDx=0;entryDy=0;" edge="1" parent="1" source="SGDhgaYnDALQm6ACCcvY-16" target="SGDhgaYnDALQm6ACCcvY-7">
          <mxGeometry relative="1" as="geometry" />
        </mxCell>
        <mxCell id="SGDhgaYnDALQm6ACCcvY-16" value="Actor" style="shape=umlActor;verticalLabelPosition=bottom;verticalAlign=top;html=1;" vertex="1" parent="1">
          <mxGeometry x="1080" y="450" width="30" height="60" as="geometry" />
        </mxCell>
      </root>
    </mxGraphModel>
  </diagram>
</mxfile>
